<?xml version="1.0" standalone="no"?>
<!DOCTYPE svg PUBLIC "-//W3C//DTD SVG 1.1//EN"
  "http://www.w3.org/Graphics/SVG/1.1/DTD/svg11.dtd">
<svg width="18" height="18" viewBox="0 0 18 18" xmlns="http://www.w3.org/2000/svg" xmlns:xlink= "http://www.w3.org/1999/xlink">
  <path class="svg-fill" fill="currentColor" d="M19.5629768,14.928563 C19.5629768,12.4475333 17.5440011,10.4285576 15.0629714,10.4285576 C12.5819416,10.4285576 10.562966,12.4475333 10.562966,14.928563 C10.562966,17.4095927 12.5819416,19.4285684 15.0629714,19.4285684 C17.5440011,19.4285684 19.5629768,17.4095927 19.5629768,14.928563 Z M24.70584,23.2857158 C24.70584,23.9888417 24.1232501,24.5714316 23.4201242,24.5714316 C23.0786059,24.5714316 22.7471323,24.4308065 22.5161053,24.1897348 L19.0707887,20.7544628 C17.8955641,21.5680798 16.4893124,22 15.0629714,22 C11.1556007,22 7.99153439,18.8359337 7.99153439,14.928563 C7.99153439,11.0211923 11.1556007,7.857126 15.0629714,7.857126 C18.9703421,7.857126 22.1344084,11.0211923 22.1344084,14.928563 C22.1344084,16.354904 21.7024882,17.7611557 20.8888712,18.9363803 L24.3341878,22.3816969 C24.5652149,22.6127239 24.70584,22.9441976 24.70584,23.2857158 Z" transform="translate(-7.14 -7)"/>
</svg>
